<svg width="154" height="152" viewBox="0 0 154 152" fill="none" xmlns="http://www.w3.org/2000/svg">
<path fill-rule="evenodd" clip-rule="evenodd" d="M67.9198 18.5356C67.1888 19.4816 65.7798 19.6166 64.8388 18.8516C63.8608 18.0576 66.0318 10.4356 67.1378 7.7186C68.2308 5.03059 69.5189 1.43057 73.2339 0.317571C79.3899 -1.52644 88.2339 4.83159 71.9169 14.9356C70.3659 15.8956 69.0338 17.0916 67.9198 18.5356V18.5356ZM105.321 16.0256C104.869 15.9246 104.292 15.9056 104.243 15.3306C104.092 13.5376 103.669 11.7746 103.662 10.1246C103.232 3.70857 112.983 6.03758 109.586 10.8756C109.155 11.4886 108.588 11.9746 108.075 12.5116C106.703 13.9436 106.258 14.9126 106.002 15.4686C105.787 15.9356 105.706 16.1116 105.321 16.0256V16.0256ZM110.346 98.4369C107.067 108.635 104.031 118.286 96.8389 126.105C85.5809 138.346 62.3028 125.093 64.5768 69.3578C64.5798 69.2768 64.5838 69.2048 64.5868 69.1408C64.6008 68.8948 64.6078 68.7668 64.5468 68.7048C64.4808 68.6368 64.3338 68.6468 64.0258 68.6698C63.9808 68.6728 63.9328 68.6768 63.8818 68.6798C55.7808 69.2388 54.8048 69.1778 54.5888 69.5548C54.5468 69.6258 54.5338 69.7138 54.5028 69.8248C51.0128 82.6038 48.6058 92.4769 46.7578 100.053C42.1198 119.072 41.0078 123.63 35.1497 123.407C33.0837 123.329 31.6347 122.982 30.4207 120.938C28.9007 118.377 28.0707 114.287 28.5687 111.363C28.9077 109.378 31.2277 109.16 32.9967 109.533C35.1267 109.982 33.8027 111.24 35.8357 117.955C36.6667 120.699 39.4487 109.404 42.9848 95.0469C44.9448 87.0888 47.1368 78.1908 49.3568 70.2208C49.5348 69.5798 49.2958 69.5918 48.2438 69.6428C47.1408 69.6978 45.1438 69.7958 41.7968 69.2328C35.0378 68.0958 31.0597 64.9748 29.4677 58.0507C28.5557 54.0907 29.1987 48.9487 33.5847 48.1907C35.1517 47.9207 37.2767 47.8457 38.6817 48.5287C39.8737 49.1077 39.7948 49.5547 39.4218 51.6547C39.2128 52.8297 38.9118 54.5227 38.6898 57.0458C38.2578 61.9688 39.7678 66.4768 44.7388 67.3018C46.3998 67.5768 48.0748 67.5548 49.7508 67.5228C50.8078 67.5018 54.6058 48.2507 66.3458 23.9777C68.0639 20.4256 68.7659 19.3856 70.2369 19.0006C81.2019 16.1316 80.7079 27.1897 79.9139 39.0447C79.9129 39.0657 77.9679 65.5728 77.9659 65.5938C77.9169 66.1708 78.0339 66.1668 79.5029 66.1118C79.6799 66.1048 79.8769 66.0978 80.0959 66.0898C83.5689 65.9748 85.5979 65.9948 86.7919 66.0068C88.0209 66.0188 88.3629 66.0218 88.4809 65.8608C88.5299 65.7938 88.5399 65.6978 88.5599 65.5608C90.5579 51.3607 101.223 33.7487 115.335 36.6407C121.699 37.9447 122.416 44.9427 122.019 51.5887C121.42 61.6068 113.395 88.9508 110.346 98.4369V98.4369ZM55.4458 67.1958C55.5658 67.1978 55.6618 67.1988 55.7568 67.1928C63.4118 66.6898 64.5348 66.7778 64.7138 66.4088C64.7548 66.3238 64.7458 66.2148 64.7548 66.0688C65.5108 53.9467 67.0979 42.4847 68.4429 31.6117C62.7598 42.9897 58.7948 54.9867 55.2308 67.1938C55.3118 67.1938 55.3818 67.1948 55.4458 67.1958V67.1958ZM78.2709 68.0848C77.9009 68.0918 77.8569 68.2488 77.8449 68.5548C77.3979 79.9898 78.2509 118.727 86.7189 126.639C88.2919 128.109 88.5149 128.171 90.4399 126.983C100.055 121.052 105.917 98.7409 108.931 87.3188C109.305 85.9028 109.77 84.2418 110.286 82.4038C114.099 68.7978 120.64 45.4607 112.851 39.5967C111.188 38.3447 103.01 46.5927 98.2679 67.0738C98.1399 67.6248 98.3329 67.6898 98.8889 67.8758C99.3869 68.0428 100.176 68.3058 101.285 69.1028C104.865 71.6718 104.165 75.6088 101.865 79.3418C100.718 81.2048 98.7489 81.9048 96.5939 81.8978C93.0229 81.8848 90.4779 80.5328 89.1009 76.4558C87.8859 72.8558 88.1129 70.7138 88.2459 69.4628C88.3129 68.8348 88.3549 68.4318 88.1799 68.1808C87.8649 67.7308 86.8449 67.7748 83.9929 67.8968C82.5809 67.9568 80.7189 68.0358 78.2709 68.0848L78.2709 68.0848ZM31.4427 42.5347C31.8877 41.0017 33.1647 40.6617 34.4897 40.4137C38.8588 39.5997 45.9928 46.1777 44.8618 48.6577C44.7428 48.9177 44.7378 49.2977 44.3938 49.3597C44.3668 49.3647 44.2748 49.2827 44.1178 49.1417C43.1958 48.3177 40.0368 45.4967 34.7407 46.5017C31.7357 47.0717 30.5877 45.4827 31.4427 42.5347V42.5347ZM41.5668 57.5067C41.6158 55.5257 42.1268 53.6987 43.4298 52.1507C44.5098 50.8657 45.2538 50.8667 46.2978 52.1617C47.3858 53.5127 47.4648 55.1747 47.5518 56.9817C47.5998 57.9967 47.6508 59.0577 47.8828 60.1347C48.1778 61.4997 48.5578 62.1078 48.7998 62.4938C49.0338 62.8668 49.1378 63.0327 48.9108 63.4757C47.3178 66.5828 41.3958 62.9897 41.5668 57.5067V57.5067ZM123.907 74.1308C125.958 72.9648 130.645 69.3438 134.417 67.7248C148.724 61.5868 155.274 76.4978 153.524 82.3018C152.574 85.4528 150.425 85.9998 147.477 86.1408C144.013 86.1028 140.598 85.0288 123.88 78.7828C121.518 77.9008 119.193 77.6948 119.176 75.7238C119.172 75.2648 119.372 75.2688 119.869 75.2778C120.559 75.2918 121.822 75.3158 123.907 74.1308V74.1308ZM97.7149 69.7748C97.6729 70.0748 97.6289 70.3748 97.5859 70.6738C97.1749 73.4938 96.7739 76.2538 97.6339 79.1678C100.644 75.8798 101.622 71.9208 97.7149 69.7748ZM142.988 88.0759C143.308 88.0689 143.621 88.0938 143.925 88.1938C144.468 88.3718 145.297 88.4508 146.233 88.5408C149.154 88.8208 153.113 89.1998 152.657 93.0029C152.404 95.1089 151.522 96.4869 149.506 95.8279C147.819 95.2759 146.353 93.6159 145.005 92.1039C144.011 90.9899 143.262 90.4438 142.757 90.0748C142.021 89.5378 141.8 89.3769 142.089 88.3868C142.195 88.0248 142.46 88.0468 142.722 88.0688C142.813 88.0768 142.904 88.0848 142.988 88.0758V88.0759ZM63.7108 107.713C63.7288 107.792 63.7468 107.87 63.7378 107.945C63.3528 111.32 66.8368 117.507 70.5058 124.022C74.6569 131.393 79.0449 139.185 78.3359 143.801C77.2149 151.094 54.6188 153.155 54.2098 125.537C54.0688 119.08 55.9718 114.831 57.1628 112.17C57.6338 111.12 57.9928 110.317 58.0718 109.724C58.2858 108.123 60.8508 106.862 62.5728 106.7C63.3298 106.629 63.5568 106.85 63.6898 107.615C63.6948 107.648 63.7028 107.681 63.7108 107.713V107.713ZM26.8707 120.277C27.0867 119.859 28.3917 120.027 28.6177 121.222C28.7437 121.885 29.0807 122.592 29.4437 123.355C30.1637 124.864 30.9867 126.59 30.4777 128.628C28.9647 134.682 19.7657 131.626 22.4617 126.062C23.5777 123.758 26.2277 121.52 26.8707 120.277V120.277ZM87.6539 137.758C87.5499 137.993 87.4449 138.23 87.3419 138.47C87.1119 139.003 86.2559 139.822 86.0019 139.177C85.0419 136.738 84.6959 136.211 84.4409 133.818C84.4719 131.772 85.5879 130.641 87.5289 130.568C87.9449 130.553 88.1679 130.795 88.3549 131.12C89.6189 133.315 88.6779 135.441 87.6539 137.758V137.758Z" fill="#FFC72C"/>
<path fill-rule="evenodd" clip-rule="evenodd" d="M64.3079 10.2586C64.2049 10.8186 64.1569 11.0836 63.6349 11.0386C62.3359 10.9276 62.3188 10.6366 61.9468 6.8846C61.9348 6.7606 61.8528 6.56959 61.7478 6.32459C61.4388 5.60259 60.9308 4.41658 61.4338 3.13458C62.2888 0.955573 64.2229 0.774574 65.8369 1.82658C67.2749 2.76558 66.3079 5.0076 65.3849 7.14561C64.9739 8.09861 64.5718 9.03062 64.3948 9.81862C64.3578 9.98062 64.3319 10.1276 64.3079 10.2586V10.2586ZM101.8 31.7977C101.984 31.3797 102.188 30.9137 102.414 30.3947C105.664 22.9096 105.327 11.9706 115.736 11.1526C129.022 12.8766 129.066 25.2866 115.4 30.4977C112.157 31.7337 107.526 33.6427 104.941 36.2977C103.883 37.3847 102.215 36.8367 101.042 36.0087C100.209 35.4197 100.437 34.8997 101.8 31.7977V31.7977ZM127.397 27.0747C126.307 27.2157 125.36 27.3377 124.917 27.5697C124.166 27.9637 123.654 26.6136 124.16 25.8366C129.873 17.0576 132.816 23.1276 132.797 24.4836C132.909 26.3647 129.805 26.7647 127.397 27.0747ZM123.371 42.0887C124.003 42.5567 125.242 43.4757 128.177 43.8927C132.072 44.4457 137.075 42.7327 140.492 41.5627C140.602 41.5247 140.711 41.4877 140.819 41.4507C144.528 40.1817 147.579 42.6207 147.67 45.8487C147.805 50.6697 144.988 52.4587 140.203 52.6417C135.938 52.6437 130.195 49.8377 126.403 47.9557C124.659 47.0907 123.423 45.7047 122.492 44.0217C122.129 43.3647 122.253 42.7197 122.56 42.1007C122.783 41.6517 122.927 41.7587 123.371 42.0887V42.0887ZM121.8 68.5988C122.784 66.6508 124.255 65.0858 125.898 63.7128C129.22 60.9358 136.119 53.8707 143.04 53.8707C150.354 53.8977 156.571 61.5348 147.635 63.4138C146.21 63.7128 144.677 63.7918 143.006 63.8788C139.624 64.0528 135.672 64.2568 130.879 66.3768C126.218 68.4398 125.439 69.4108 123.601 70.2508C122.912 70.5668 121.175 69.8358 121.8 68.5988V68.5988ZM31.3698 69.2218C32.7068 69.0198 34.0788 68.9778 35.3328 68.3838C35.7518 68.1848 36.5598 69.0538 36.3418 69.7018C35.3038 72.7868 29.1037 75.2368 27.1057 75.2368C24.0897 75.4518 20.5697 70.8478 31.3697 69.2218H31.3698ZM37.5758 92.3359C39.1358 93.0559 39.1298 93.4168 38.8218 94.3659C36.2808 102.19 25.8467 114.875 16.0197 114.882C9.94468 114.533 2.52366 107.537 7.77667 103.608C11.8337 100.573 22.6547 101.402 30.2687 97.8399C33.6327 96.2659 35.1088 94.4459 36.0178 93.3249C36.6668 92.5259 37.0268 92.0819 37.5758 92.3359V92.3359ZM50.4558 108.64C50.6988 107.957 52.4188 108.18 53.3308 108.69C55.5268 109.919 53.2548 121.963 47.7848 131.261C40.7228 143.265 26.2497 137.722 29.9697 131.586C33.5348 125.708 44.3148 125.928 50.4558 108.64ZM95.489 128.68C96.052 128.208 96.7359 128.261 97.4019 128.43C97.8989 128.556 97.675 128.906 97.278 129.526C97.155 129.717 97.016 129.934 96.877 130.178C94.9899 133.486 95.3699 137.51 95.7039 141.044C96.0899 145.125 96.4139 148.553 93.1119 149.472C90.2609 150.266 87.2319 149.545 86.8869 146.274C86.3679 141.356 89.0169 134.105 95.489 128.68V128.68Z" fill="#D22630"/>
<path fill-rule="evenodd" clip-rule="evenodd" d="M102.764 16.6216C102.816 31.6057 87.2079 47.7277 87.1859 47.7327C86.8449 47.8217 86.5319 47.9057 86.2459 47.9827C84.6749 48.4047 83.8999 48.6127 83.5779 48.3217C83.2649 48.0377 83.3779 47.2827 83.6019 45.7937C83.8969 43.8307 84.3839 40.5917 84.3359 35.4777C84.2799 29.3377 83.5309 24.6207 82.9039 20.6696C82.3649 17.2756 81.9159 14.4476 82.0729 11.7696C82.9799 -3.76344 103.062 -0.343432 102.764 16.6216V16.6216ZM76.1759 17.4856C75.4589 17.3756 74.7469 17.2666 73.9189 17.4076C73.0329 17.5586 70.9969 17.0036 72.0039 16.0216C73.9859 14.0876 77.8539 12.7596 80.4589 14.4896C81.9649 15.4896 81.1939 17.6276 77.9049 17.6276C77.2879 17.6566 76.7299 17.5706 76.1759 17.4856V17.4856ZM113.931 34.5877C113.747 33.9067 113.809 33.7557 114.435 33.4427C119.054 31.1397 129.078 26.9107 134.196 28.0677C141.269 29.6647 143.672 41.8697 134.271 41.8697C129.342 41.8037 125.699 39.3057 121.22 37.0787C118.141 35.5487 116.457 35.6147 115.459 35.6537C114.58 35.6877 114.232 35.7007 113.931 34.5877V34.5877ZM21.9077 61.9498C17.0897 61.0478 11.0537 60.0247 7.17266 57.2977C1.25764 53.1407 4.65164 44.6047 9.27066 44.8607C13.9127 44.8617 17.4397 48.2907 20.0477 52.1317C21.9897 54.9917 23.1397 57.0667 26.7287 58.7087C27.7197 59.1617 27.0087 60.8458 26.4087 61.6128C25.6507 62.5838 23.1237 62.1768 21.9077 61.9498V61.9498ZM26.8337 67.9148C24.7877 70.0808 15.7027 75.4808 7.24965 75.7278C-2.99538 76.0628 -3.38738 59.1868 12.6097 63.0088C13.2837 63.1698 13.9837 63.3578 14.7057 63.5508C17.8187 64.3858 21.3207 65.3248 24.7537 64.6638C25.0017 64.6158 25.2257 64.5108 25.4327 64.4128C25.8667 64.2098 26.2237 64.0418 26.5587 64.5188C27.2207 65.4628 27.6637 67.0348 26.8337 67.9148V67.9148ZM32.1627 89.2569C26.9627 93.4709 18.8247 98.1269 12.4517 98.1359C3.98365 98.2849 -4.40038 87.0679 5.89865 81.0428C12.2157 77.3478 18.9777 77.3518 26.3407 76.7958C33.5997 76.2488 37.1558 73.9948 39.2608 72.6598C41.2248 71.4158 41.9258 70.9718 43.1918 73.4578C43.8528 74.7558 41.4388 78.3298 40.6438 79.3038C39.8998 80.2158 38.3377 84.2508 32.1627 89.2569H32.1627ZM116.214 97.9669C116.38 98.8849 116.631 100.266 117.643 101.99C119.551 105.238 122.358 107.903 125.044 110.452C129.593 114.77 133.794 118.758 132.685 124.691C132.09 127.871 128.352 132.593 122.438 134.264C113.549 136.776 109.914 125.665 109.816 116.166C110.011 113.653 110.027 111.314 110.042 109.187C110.086 102.734 110.117 98.2389 115.08 96.7679C115.95 96.5109 116.032 96.9619 116.214 97.9669H116.214ZM107.223 116.225C107.186 117.005 107.148 117.785 107.111 118.565C106.949 122.607 108.801 126.575 110.501 130.218C112.938 135.438 115.063 139.991 110.502 143.137C101.304 149.482 92.2689 140.491 100.921 124.007C101.198 123.48 101.224 123.37 101.255 123.242C101.328 122.941 101.424 122.544 104.854 116.397C105.27 115.65 107.271 115.182 107.223 116.225V116.225ZM53.2818 133.545C53.5018 134.771 53.6388 136.006 53.5928 137.53C53.5278 138.065 53.6028 138.628 53.6868 139.257C53.8298 140.325 53.9988 141.585 53.5508 143.231C52.6598 146.502 48.6458 146.896 46.2028 145.516C41.9578 143.117 45.8698 136.574 48.2858 132.533C48.9898 131.357 49.5658 130.392 49.7778 129.804C49.9828 129.232 50.4588 129.152 51.1108 129.13C52.5208 129.081 52.5728 129.387 53.0238 132.053C53.0968 132.485 53.1808 132.98 53.2818 133.545V133.545Z" fill="#5E366E"/>
<path fill-rule="evenodd" clip-rule="evenodd" d="M55.7548 41.7867C59.1618 40.4827 62.0778 25.5057 62.0738 18.4646C62.1398 -0.961416 47.4168 4.56159 46.0558 11.1136C45.3628 14.4526 47.1608 17.6396 49.3328 21.4886C51.8408 25.9337 54.8478 31.2627 55.0948 38.7317C55.1158 39.3777 55.0768 39.9537 55.0448 40.4297C54.9698 41.5307 54.9308 42.1027 55.7548 41.7867V41.7867ZM34.1957 38.3077C38.3328 39.5837 42.2998 41.2297 45.9438 43.6147C47.8828 44.8847 48.3128 46.4547 48.5908 47.4737C48.8528 48.4307 48.9818 48.9017 50.1058 48.1787C51.6848 47.1617 52.4948 45.7727 52.2258 44.2157C51.9048 36.1867 49.9638 29.3817 44.0228 21.0796C40.6838 16.4126 36.4488 13.0356 31.0637 15.1016C21.2627 18.8636 16.4427 32.8337 34.1957 38.3077V38.3077ZM22.2187 47.1637C23.7227 47.8557 28.9267 49.4697 29.6927 48.6337C30.1147 48.1727 30.2017 46.9257 29.8047 46.4187C26.2017 41.8077 26.0427 37.5067 21.7077 32.4337C19.8637 30.2757 17.5337 28.4757 15.1747 30.0447C13.3667 31.2467 12.3847 34.4257 12.3217 36.5847C12.0347 42.0987 15.4847 44.0677 22.2187 47.1637V47.1637ZM136.172 54.6887C136.369 54.6407 136.468 54.5048 136.497 54.2888C136.663 53.0458 135.898 52.8097 134.335 52.3267C133.544 52.0827 132.548 51.7747 131.365 51.2417C122.22 47.1207 120.588 56.7008 125.721 57.4518C128.762 57.8958 131.005 56.8558 133.093 55.8878C134.132 55.4058 135.132 54.9418 136.172 54.6888V54.6887ZM146.518 64.7768C146.149 64.8908 145.933 65.0978 145.976 65.4968C145.982 65.5518 145.986 65.6088 145.99 65.6648C146.019 66.0328 146.048 66.4098 146.521 66.5348C147.772 66.8658 148.993 67.6098 150.065 68.2618C152.095 69.4988 153.588 70.4078 153.721 67.5608C153.838 63.8268 149.227 63.9398 146.518 64.7768V64.7768ZM119.752 80.1508C117.224 79.4458 116.544 83.4058 116.604 85.9109C117.021 98.9679 131.032 115.426 138.347 115.891C144.557 116.285 147.983 109.679 148.185 103.98C148.633 91.3309 131.881 83.5348 119.752 80.1508ZM11.5507 99.8909C11.3707 99.4549 11.2667 98.9389 10.6417 98.9099C8.81468 98.8249 7.63667 98.4149 6.63467 98.0649C5.82467 97.7829 5.12967 97.5409 4.29966 97.5429C3.32566 97.5979 2.40664 97.7709 2.44164 98.8799C2.61164 104.271 12.2547 101.582 11.5507 99.8909V99.8909ZM27.1827 117.421C27.6967 116.375 25.8537 115.77 24.7477 116.24C24.1197 116.507 23.2607 116.78 22.3157 117.08C19.2757 118.046 15.3467 119.294 15.3547 121.536C15.3557 123.223 18.7917 125.538 22.3607 122.726C24.4187 121.103 26.9067 117.984 27.1827 117.421H27.1827ZM78.9379 129.363C77.9579 128.845 77.1539 130.355 77.5809 131.167C80.2829 136.3 79.9599 140.686 79.6229 145.259C79.5889 145.715 79.5559 146.172 79.5249 146.633C79.4999 149.941 80.1879 152.633 82.9419 150.8C90.4489 145.8 81.7909 130.869 78.9379 129.363V129.363Z" fill="#003087"/>
</svg>
